<mxfile host="65bd71144e" scale="1" border="0" disableSvgWarning="true">
    <diagram id="vnx4QcKmEqomslrF8-B6" name="Page-1">
        <mxGraphModel dx="251" dy="137" grid="1" gridSize="10" guides="1" tooltips="1" connect="1" arrows="1" fold="1" page="1" pageScale="1" pageWidth="827" pageHeight="1169" math="0" shadow="0">
            <root>
                <mxCell id="0"/>
                <mxCell id="1" parent="0"/>
                <mxCell id="46" value="" style="group" vertex="1" connectable="0" parent="1">
                    <mxGeometry x="390" y="30" width="370" height="470" as="geometry"/>
                </mxCell>
                <mxCell id="44" value="" style="rounded=1;whiteSpace=wrap;html=1;fontFamily=Times New Roman;fontSize=15;fillColor=#D0F5FF;strokeColor=none;" vertex="1" parent="46">
                    <mxGeometry y="20" width="370" height="450" as="geometry"/>
                </mxCell>
                <mxCell id="2" value="entry_function" style="rounded=1;whiteSpace=wrap;html=1;fontFamily=Times New Roman;fontSize=15;strokeColor=none;fillColor=#1BA1E2;" vertex="1" parent="46">
                    <mxGeometry x="30" y="50" width="140" height="30" as="geometry"/>
                </mxCell>
                <mxCell id="4" value="" style="endArrow=classic;html=1;fontFamily=Times New Roman;fontSize=15;entryX=0.5;entryY=0;entryDx=0;entryDy=0;strokeColor=#1BA1E2;" edge="1" parent="46" target="2">
                    <mxGeometry width="50" height="50" relative="1" as="geometry">
                        <mxPoint x="100" as="sourcePoint"/>
                        <mxPoint x="-40" y="30" as="targetPoint"/>
                    </mxGeometry>
                </mxCell>
                <mxCell id="6" value="domain_enter" style="rounded=1;whiteSpace=wrap;html=1;fontFamily=Times New Roman;fontSize=15;strokeColor=none;fillColor=#00BCE6;" vertex="1" parent="46">
                    <mxGeometry x="60" y="110" width="140" height="30" as="geometry"/>
                </mxCell>
                <mxCell id="7" value="domain_exit" style="rounded=1;whiteSpace=wrap;html=1;fontFamily=Times New Roman;fontSize=15;strokeColor=none;fillColor=#00BCE6;" vertex="1" parent="46">
                    <mxGeometry x="60" y="410" width="140" height="30" as="geometry"/>
                </mxCell>
                <mxCell id="8" value="query_hwirq" style="rounded=1;whiteSpace=wrap;html=1;fontFamily=Times New Roman;fontSize=15;fillColor=#00D4D3;strokeColor=none;" vertex="1" parent="46">
                    <mxGeometry x="60" y="170" width="140" height="30" as="geometry"/>
                </mxCell>
                <mxCell id="9" value="" style="endArrow=classic;html=1;fontFamily=Times New Roman;fontSize=15;exitX=0;exitY=0.5;exitDx=0;exitDy=0;entryX=0;entryY=0.5;entryDx=0;entryDy=0;strokeColor=#1BA1E2;" edge="1" parent="46" source="2" target="6">
                    <mxGeometry width="50" height="50" relative="1" as="geometry">
                        <mxPoint y="150" as="sourcePoint"/>
                        <mxPoint x="50" y="100" as="targetPoint"/>
                        <Array as="points">
                            <mxPoint x="30" y="125"/>
                        </Array>
                    </mxGeometry>
                </mxCell>
                <mxCell id="10" value="" style="endArrow=classic;html=1;fontFamily=Times New Roman;fontSize=15;exitX=0;exitY=0.5;exitDx=0;exitDy=0;entryX=0;entryY=0.5;entryDx=0;entryDy=0;strokeColor=#1BA1E2;" edge="1" parent="46" source="2" target="8">
                    <mxGeometry width="50" height="50" relative="1" as="geometry">
                        <mxPoint x="-40" y="240" as="sourcePoint"/>
                        <mxPoint x="10" y="190" as="targetPoint"/>
                        <Array as="points">
                            <mxPoint x="30" y="185"/>
                        </Array>
                    </mxGeometry>
                </mxCell>
                <mxCell id="12" style="edgeStyle=none;html=1;exitX=0;exitY=0.5;exitDx=0;exitDy=0;entryX=1;entryY=0.5;entryDx=0;entryDy=0;fontFamily=Times New Roman;fontSize=15;strokeColor=#1BA1E2;" edge="1" parent="46" source="27" target="8">
                    <mxGeometry relative="1" as="geometry">
                        <mxPoint x="230" y="45" as="sourcePoint"/>
                        <Array as="points">
                            <mxPoint x="220" y="125"/>
                            <mxPoint x="220" y="185"/>
                        </Array>
                    </mxGeometry>
                </mxCell>
                <mxCell id="13" value="hwirq_to_softirq" style="rounded=1;whiteSpace=wrap;html=1;fontFamily=Times New Roman;fontSize=15;fillColor=#00D4D3;strokeColor=none;" vertex="1" parent="46">
                    <mxGeometry x="60" y="230" width="140" height="30" as="geometry"/>
                </mxCell>
                <mxCell id="15" value="hwirq" style="text;html=1;align=center;verticalAlign=middle;resizable=0;points=[];autosize=1;strokeColor=none;fillColor=none;fontSize=15;fontFamily=Times New Roman;" vertex="1" parent="46">
                    <mxGeometry x="130" y="200" width="60" height="30" as="geometry"/>
                </mxCell>
                <mxCell id="14" style="edgeStyle=none;html=1;exitX=0.5;exitY=1;exitDx=0;exitDy=0;entryX=0.5;entryY=0;entryDx=0;entryDy=0;fontFamily=Times New Roman;fontSize=15;strokeColor=#1BA1E2;" edge="1" parent="46" source="8" target="13">
                    <mxGeometry relative="1" as="geometry"/>
                </mxCell>
                <mxCell id="16" value="" style="endArrow=classic;html=1;fontFamily=Times New Roman;fontSize=15;exitX=0;exitY=0.5;exitDx=0;exitDy=0;entryX=0;entryY=0.5;entryDx=0;entryDy=0;strokeColor=#1BA1E2;" edge="1" parent="46" source="2" target="13">
                    <mxGeometry width="50" height="50" relative="1" as="geometry">
                        <mxPoint x="-30" y="290" as="sourcePoint"/>
                        <mxPoint x="20" y="240" as="targetPoint"/>
                        <Array as="points">
                            <mxPoint x="30" y="245"/>
                        </Array>
                    </mxGeometry>
                </mxCell>
                <mxCell id="18" style="edgeStyle=none;html=1;exitX=0.018;exitY=0.269;exitDx=0;exitDy=0;entryX=1;entryY=0.5;entryDx=0;entryDy=0;fontFamily=Times New Roman;fontSize=15;exitPerimeter=0;strokeColor=#1BA1E2;" edge="1" parent="46" source="33" target="13">
                    <mxGeometry relative="1" as="geometry">
                        <mxPoint x="230" y="245" as="sourcePoint"/>
                    </mxGeometry>
                </mxCell>
                <mxCell id="19" value="softirq_to_irq_desc" style="rounded=1;whiteSpace=wrap;html=1;fontFamily=Times New Roman;fontSize=15;fillColor=#00D4D3;strokeColor=none;" vertex="1" parent="46">
                    <mxGeometry x="60" y="290" width="140" height="30" as="geometry"/>
                </mxCell>
                <mxCell id="21" value="softirq" style="text;html=1;align=center;verticalAlign=middle;resizable=0;points=[];autosize=1;strokeColor=none;fillColor=none;fontSize=15;fontFamily=Times New Roman;" vertex="1" parent="46">
                    <mxGeometry x="130" y="260" width="60" height="30" as="geometry"/>
                </mxCell>
                <mxCell id="24" value="irq_desc.handler" style="rounded=1;whiteSpace=wrap;html=1;fontFamily=Times New Roman;fontSize=15;fillColor=#3EE6AF;strokeColor=none;" vertex="1" parent="46">
                    <mxGeometry x="60" y="350" width="140" height="30" as="geometry"/>
                </mxCell>
                <mxCell id="39" value="" style="endArrow=classic;html=1;fontFamily=Times New Roman;fontSize=15;entryX=1;entryY=0.5;entryDx=0;entryDy=0;exitX=0;exitY=0.731;exitDx=0;exitDy=0;exitPerimeter=0;strokeColor=#1BA1E2;" edge="1" parent="46" source="33" target="19">
                    <mxGeometry width="50" height="50" relative="1" as="geometry">
                        <mxPoint x="180" y="380" as="sourcePoint"/>
                        <mxPoint x="230" y="330" as="targetPoint"/>
                    </mxGeometry>
                </mxCell>
                <mxCell id="27" value="" style="rounded=1;whiteSpace=wrap;html=1;fontFamily=Times New Roman;fontSize=15;container=0;fillColor=#9DADBC;strokeColor=none;" vertex="1" parent="46">
                    <mxGeometry x="238" y="60" width="110" height="130" as="geometry"/>
                </mxCell>
                <mxCell id="28" value="register" style="rounded=0;whiteSpace=wrap;html=1;fontFamily=Times New Roman;fontSize=15;container=0;fillColor=#919BB2;strokeColor=none;" vertex="1" parent="46">
                    <mxGeometry x="252" y="74" width="80" height="30" as="geometry"/>
                </mxCell>
                <mxCell id="29" value="register" style="rounded=0;whiteSpace=wrap;html=1;fontFamily=Times New Roman;fontSize=15;container=0;fillColor=#8A89A5;strokeColor=none;" vertex="1" parent="46">
                    <mxGeometry x="252" y="104" width="80" height="30" as="geometry"/>
                </mxCell>
                <mxCell id="30" value="register" style="rounded=0;whiteSpace=wrap;html=1;fontFamily=Times New Roman;fontSize=15;container=0;fillColor=#919BB2;strokeColor=none;" vertex="1" parent="46">
                    <mxGeometry x="252" y="134" width="80" height="30" as="geometry"/>
                </mxCell>
                <mxCell id="40" value="" style="endArrow=classic;html=1;fontFamily=Times New Roman;fontSize=15;exitX=0;exitY=0.5;exitDx=0;exitDy=0;entryX=0;entryY=0.5;entryDx=0;entryDy=0;strokeColor=#1BA1E2;" edge="1" parent="46" source="2" target="19">
                    <mxGeometry width="50" height="50" relative="1" as="geometry">
                        <mxPoint x="-70" y="160" as="sourcePoint"/>
                        <mxPoint x="-20" y="110" as="targetPoint"/>
                        <Array as="points">
                            <mxPoint x="30" y="305"/>
                        </Array>
                    </mxGeometry>
                </mxCell>
                <mxCell id="41" value="" style="endArrow=classic;html=1;fontFamily=Times New Roman;fontSize=15;exitX=0;exitY=0.5;exitDx=0;exitDy=0;entryX=0;entryY=0.5;entryDx=0;entryDy=0;strokeColor=#1BA1E2;" edge="1" parent="46" source="2" target="24">
                    <mxGeometry width="50" height="50" relative="1" as="geometry">
                        <mxPoint x="-140" y="220" as="sourcePoint"/>
                        <mxPoint x="-90" y="170" as="targetPoint"/>
                        <Array as="points">
                            <mxPoint x="30" y="365"/>
                        </Array>
                    </mxGeometry>
                </mxCell>
                <mxCell id="20" style="edgeStyle=none;html=1;exitX=0.5;exitY=1;exitDx=0;exitDy=0;entryX=0.5;entryY=0;entryDx=0;entryDy=0;fontFamily=Times New Roman;fontSize=15;strokeColor=#1BA1E2;" edge="1" parent="46" source="13" target="19">
                    <mxGeometry relative="1" as="geometry"/>
                </mxCell>
                <mxCell id="42" value="" style="endArrow=classic;html=1;fontFamily=Times New Roman;fontSize=15;exitX=0;exitY=0.5;exitDx=0;exitDy=0;entryX=0;entryY=0.5;entryDx=0;entryDy=0;strokeColor=#1BA1E2;" edge="1" parent="46" source="2" target="7">
                    <mxGeometry width="50" height="50" relative="1" as="geometry">
                        <mxPoint x="-30" y="180" as="sourcePoint"/>
                        <mxPoint x="20" y="130" as="targetPoint"/>
                        <Array as="points">
                            <mxPoint x="30" y="425"/>
                        </Array>
                    </mxGeometry>
                </mxCell>
                <mxCell id="45" value="Interrupt Domain" style="text;html=1;align=center;verticalAlign=middle;resizable=0;points=[];autosize=1;strokeColor=none;fillColor=none;fontSize=15;fontFamily=Times New Roman;" vertex="1" parent="46">
                    <mxGeometry x="218" y="380" width="130" height="30" as="geometry"/>
                </mxCell>
                <mxCell id="32" value="" style="group" vertex="1" connectable="0" parent="46">
                    <mxGeometry x="238" y="210" width="120" height="130" as="geometry"/>
                </mxCell>
                <mxCell id="33" value="" style="rounded=1;whiteSpace=wrap;html=1;fontFamily=Times New Roman;fontSize=15;fillColor=#9DADBC;strokeColor=none;" vertex="1" parent="32">
                    <mxGeometry width="110" height="130" as="geometry"/>
                </mxCell>
                <mxCell id="34" value="irq_domain" style="rounded=0;whiteSpace=wrap;html=1;fontFamily=Times New Roman;fontSize=15;fillColor=#919BB2;strokeColor=none;" vertex="1" parent="32">
                    <mxGeometry x="14" y="14" width="80" height="30" as="geometry"/>
                </mxCell>
                <mxCell id="35" value="..." style="rounded=0;whiteSpace=wrap;html=1;fontFamily=Times New Roman;fontSize=15;fillColor=#8A89A5;strokeColor=none;" vertex="1" parent="32">
                    <mxGeometry x="14" y="44" width="80" height="30" as="geometry"/>
                </mxCell>
                <mxCell id="36" value="radix tree" style="rounded=0;whiteSpace=wrap;html=1;fontFamily=Times New Roman;fontSize=15;fillColor=#919BB2;strokeColor=none;" vertex="1" parent="32">
                    <mxGeometry x="14" y="74" width="80" height="30" as="geometry"/>
                </mxCell>
                <mxCell id="48" value="memory" style="text;html=1;align=center;verticalAlign=middle;resizable=0;points=[];autosize=1;strokeColor=none;fillColor=none;fontSize=15;fontFamily=Times New Roman;" vertex="1" parent="32">
                    <mxGeometry x="19" y="100" width="70" height="30" as="geometry"/>
                </mxCell>
                <mxCell id="47" value="irq controller" style="text;html=1;align=center;verticalAlign=middle;resizable=0;points=[];autosize=1;strokeColor=none;fillColor=none;fontSize=15;fontFamily=Times New Roman;" vertex="1" parent="46">
                    <mxGeometry x="242" y="160" width="100" height="30" as="geometry"/>
                </mxCell>
                <mxCell id="57" value="" style="endArrow=classic;html=1;strokeColor=#1BA1E2;fontFamily=Times New Roman;fontSize=15;exitX=0.5;exitY=1;exitDx=0;exitDy=0;entryX=0.5;entryY=0;entryDx=0;entryDy=0;" edge="1" parent="46" source="19" target="24">
                    <mxGeometry width="50" height="50" relative="1" as="geometry">
                        <mxPoint x="100" y="380" as="sourcePoint"/>
                        <mxPoint x="150" y="330" as="targetPoint"/>
                    </mxGeometry>
                </mxCell>
                <mxCell id="58" value="irq_desc" style="text;html=1;align=center;verticalAlign=middle;resizable=0;points=[];autosize=1;strokeColor=none;fillColor=none;fontSize=15;fontFamily=Times New Roman;" vertex="1" parent="46">
                    <mxGeometry x="130" y="320" width="70" height="30" as="geometry"/>
                </mxCell>
                <mxCell id="49" value="" style="endArrow=classic;html=1;strokeColor=#1BA1E2;fontFamily=Times New Roman;fontSize=15;exitX=1;exitY=0.5;exitDx=0;exitDy=0;" edge="1" parent="1" source="24">
                    <mxGeometry width="50" height="50" relative="1" as="geometry">
                        <mxPoint x="770" y="420" as="sourcePoint"/>
                        <mxPoint x="780" y="395" as="targetPoint"/>
                    </mxGeometry>
                </mxCell>
                <mxCell id="52" style="edgeStyle=none;html=1;exitX=1;exitY=0.75;exitDx=0;exitDy=0;entryX=0.25;entryY=0;entryDx=0;entryDy=0;strokeColor=#1BA1E2;fontFamily=Times New Roman;fontSize=15;" edge="1" parent="1" source="50" target="51">
                    <mxGeometry relative="1" as="geometry">
                        <Array as="points">
                            <mxPoint x="255" y="125"/>
                        </Array>
                    </mxGeometry>
                </mxCell>
                <mxCell id="50" value="domain0" style="rounded=1;whiteSpace=wrap;html=1;strokeColor=none;fontFamily=Times New Roman;fontSize=15;fillColor=#D0F5FF;" vertex="1" parent="1">
                    <mxGeometry x="160" y="80" width="60" height="60" as="geometry"/>
                </mxCell>
                <mxCell id="51" value="domain1" style="rounded=1;whiteSpace=wrap;html=1;strokeColor=none;fontFamily=Times New Roman;fontSize=15;fillColor=#D0F5FF;" vertex="1" parent="1">
                    <mxGeometry x="240" y="170" width="60" height="60" as="geometry"/>
                </mxCell>
                <mxCell id="53" value="handler" style="rounded=1;whiteSpace=wrap;html=1;strokeColor=none;fontFamily=Times New Roman;fontSize=15;fillColor=#D0F5FF;" vertex="1" parent="1">
                    <mxGeometry x="240" y="260" width="60" height="60" as="geometry"/>
                </mxCell>
                <mxCell id="54" value="" style="endArrow=classic;html=1;strokeColor=#1BA1E2;fontFamily=Times New Roman;fontSize=15;exitX=1;exitY=0.75;exitDx=0;exitDy=0;entryX=1;entryY=0.5;entryDx=0;entryDy=0;" edge="1" parent="1" source="51" target="53">
                    <mxGeometry width="50" height="50" relative="1" as="geometry">
                        <mxPoint x="330" y="250" as="sourcePoint"/>
                        <mxPoint x="340" y="215" as="targetPoint"/>
                        <Array as="points">
                            <mxPoint x="330" y="215"/>
                            <mxPoint x="330" y="290"/>
                        </Array>
                    </mxGeometry>
                </mxCell>
                <mxCell id="55" value="" style="endArrow=none;dashed=1;html=1;strokeColor=#1BA1E2;fontFamily=Times New Roman;fontSize=15;" edge="1" parent="1">
                    <mxGeometry width="50" height="50" relative="1" as="geometry">
                        <mxPoint x="300" y="170" as="sourcePoint"/>
                        <mxPoint x="380" y="80" as="targetPoint"/>
                    </mxGeometry>
                </mxCell>
                <mxCell id="56" value="" style="endArrow=none;dashed=1;html=1;strokeColor=#1BA1E2;fontFamily=Times New Roman;fontSize=15;exitX=1;exitY=1;exitDx=0;exitDy=0;" edge="1" parent="1" source="51">
                    <mxGeometry width="50" height="50" relative="1" as="geometry">
                        <mxPoint x="230" y="470" as="sourcePoint"/>
                        <mxPoint x="380" y="460" as="targetPoint"/>
                    </mxGeometry>
                </mxCell>
                <mxCell id="60" style="edgeStyle=none;html=1;entryX=0.25;entryY=0;entryDx=0;entryDy=0;strokeColor=#1BA1E2;fontFamily=Times New Roman;fontSize=15;" edge="1" parent="1" target="50">
                    <mxGeometry relative="1" as="geometry">
                        <mxPoint x="175" y="30" as="sourcePoint"/>
                        <mxPoint x="160" y="75" as="targetPoint"/>
                        <Array as="points">
                            <mxPoint x="175" y="50"/>
                        </Array>
                    </mxGeometry>
                </mxCell>
            </root>
        </mxGraphModel>
    </diagram>
</mxfile>